<svg width="18" height="18" viewBox="0 0 18 18" fill="none" xmlns="http://www.w3.org/2000/svg">
<path fill-rule="evenodd" clip-rule="evenodd" d="M5.50413 3.4187H8.76523C9.71845 3.4187 10.6326 3.79736 11.3066 4.47139C11.9807 5.14541 12.3593 6.05958 12.3593 7.01279V7.22949C12.3579 8.18179 11.9786 9.0946 11.3048 9.76748C10.6309 10.4404 9.71753 10.8183 8.76523 10.8183H8.25255V9.76121H8.76523C9.43535 9.75982 10.0777 9.49337 10.552 9.02002C11.0264 8.54668 11.2942 7.90489 11.297 7.23478V7.01279C11.297 6.34176 11.0311 5.69806 10.5576 5.22259C10.0841 4.74711 9.44154 4.47858 8.77052 4.47579H5.50413C4.83127 4.47579 4.18597 4.74308 3.71019 5.21886C3.47461 5.45444 3.28773 5.73412 3.16024 6.04192C3.03274 6.34973 2.96712 6.67963 2.96712 7.01279V7.22949C2.96871 7.82731 3.18188 8.40526 3.56885 8.86092C3.95583 9.31659 4.49163 9.62055 5.08129 9.71893V10.776C4.21216 10.6731 3.41046 10.2565 2.8266 9.60456C2.24273 8.95258 1.91683 8.10996 1.91003 7.23478V7.01279C1.91143 6.06001 2.29054 5.14665 2.96426 4.47293C3.63798 3.79921 4.55134 3.4201 5.50413 3.4187ZM13.5381 7.68932V6.63223C14.409 6.7354 15.2121 7.15345 15.7962 7.80765C16.3803 8.46185 16.7051 9.30704 16.7093 10.184V10.4007C16.7065 11.3517 16.3275 12.2629 15.6551 12.9353C14.9827 13.6078 14.0715 13.9868 13.1205 13.9895H9.85411C8.90364 13.9882 7.99243 13.6103 7.31985 12.9387C6.64727 12.2672 6.2681 11.3565 6.26531 10.406V10.184C6.26531 9.23174 6.64324 8.31837 7.31612 7.6445C7.989 6.97063 8.90182 6.59135 9.85411 6.58995H10.3668V7.64704H9.85411C9.18217 7.64844 8.53823 7.91634 8.06359 8.39197C7.58896 8.8676 7.32239 9.5121 7.32239 10.184V10.4007C7.32379 11.0718 7.59097 11.7149 8.06546 12.1894C8.53995 12.6639 9.18309 12.9311 9.85411 12.9325H13.1205C13.7906 12.9311 14.433 12.6646 14.9073 12.1913C15.3816 11.7179 15.6494 11.0761 15.6522 10.406V10.184C15.6519 9.58532 15.4393 9.00611 15.0522 8.54935C14.6651 8.09258 14.1286 7.78786 13.5381 7.68932Z" fill="currentColor"/>
</svg>
