<svg width="17" height="18" viewBox="0 0 17 18" fill="none" xmlns="http://www.w3.org/2000/svg">
<path d="M12.688 13.4498V4.50681L13.8825 3.69286H14.8022V2.63577H13.7451L13.4174 2.73091L12.1595 3.58715L10.8698 2.72034L10.5739 2.63577H9.51677V3.69286H10.4153L11.6309 4.50681V13.4498L10.4364 14.2637H9.51677V15.3208H10.5739L10.9016 15.2257L12.1595 14.3694L13.4491 15.2362L13.7451 15.3208H14.8022V14.2637H13.9037L12.688 13.4498Z" fill="currentColor"/>
<path d="M1.06009 11.621V6.33557L1.58863 5.80703H10.5739V6.86411H2.11717V11.0925H10.5739V12.1495H1.58863L1.06009 11.621Z" fill="currentColor"/>
<path d="M13.7451 5.80703H15.3307L15.8593 6.33557V11.621L15.3307 12.1495H13.7451V11.0925H14.8022V6.86411H13.7451V5.80703Z" fill="currentColor"/>
<path d="M3.17426 8.44974V9.50683L3.7028 10.0354H7.93114L8.45969 9.50683V8.44974L7.93114 7.9212H3.7028L3.17426 8.44974Z" fill="currentColor"/>
</svg>
