<svg width="18" height="18" viewBox="0 0 18 18" fill="none" xmlns="http://www.w3.org/2000/svg">
<path d="M11.1832 13.4431L11.9232 14.1831L13.6145 12.4917L15.3059 14.1831L16.1515 13.4431L14.3545 11.7518L16.1515 10.0604L15.3059 9.21476L13.6145 11.0118L11.9232 9.21476L11.1832 10.0604L12.8746 11.7518L11.1832 13.4431Z" fill="currentColor"/>
<path d="M1.66943 4.35211L16.4686 4.35211L16.4686 3.29503L1.66943 3.29503L1.66943 4.35211Z" fill="currentColor"/>
<path d="M1.66943 7.52337L16.4686 7.52337L16.4686 6.46628L1.66943 6.46628L1.66943 7.52337Z" fill="currentColor"/>
<path d="M10.1261 10.1661L10.1261 9.63754L1.66941 9.63754L1.66941 10.6946L10.1261 10.6946L10.1261 10.1661Z" fill="currentColor"/>
<path d="M10.1261 13.8659L10.1261 13.3373L10.1261 12.8088L1.66941 12.8088L1.66941 13.8659L10.1261 13.8659Z" fill="currentColor"/>
</svg>
